#define l_rcv_ind_r_width 18
#define l_rcv_ind_r_height 18
static unsigned char l_rcv_ind_r_bits[] = {
   0xe0, 0x1f, 0x00, 0xf8, 0x7f, 0x00, 0xfc, 0xff, 0x00, 0xfe, 0xff, 0x01,
   0xfe, 0xff, 0x01, 0xff, 0xff, 0x03, 0xff, 0xff, 0x03, 0xff, 0xff, 0x03,
   0xff, 0xff, 0x03, 0xff, 0xff, 0x03, 0xff, 0xff, 0x03, 0xff, 0xff, 0x03,
   0xff, 0xff, 0x03, 0xfe, 0xff, 0x01, 0xfe, 0xff, 0x01, 0xfc, 0xff, 0x00,
   0xf8, 0x7f, 0x00, 0xe0, 0x1f, 0x00 };
